<?xml version="1.0" encoding="UTF-8"?>
<svg xmlns="http://www.w3.org/2000/svg" xmlns:xlink="http://www.w3.org/1999/xlink" width="250px" height="250px" viewBox="0 0 250 250" version="1.1">
<g id="surface1">
<path style=" stroke:none;fill-rule:nonzero;fill:rgb(0%,0%,0%);fill-opacity:1;" d="M 158.445312 22.632812 C 157.324219 24.632812 154.832031 29.054688 152.878906 32.46875 C 150.929688 35.890625 148.363281 40.453125 147.144531 42.601562 C 145.945312 44.75 143.847656 48.4375 142.503906 50.78125 C 141.164062 53.125 138.0625 58.640625 135.59375 63.035156 C 133.128906 67.433594 130.785156 71.535156 130.394531 72.167969 C 129.761719 73.21875 129.664062 73.265625 129.417969 72.851562 C 129.125 72.363281 121.996094 57.960938 121.214844 56.273438 C 120.945312 55.738281 120.628906 55.222656 120.507812 55.128906 C 120.164062 54.882812 79.640625 54.882812 79.515625 55.101562 C 79.441406 55.222656 80.101562 56.617188 80.980469 58.226562 C 81.835938 59.839844 83.714844 63.355469 85.132812 66.039062 C 86.546875 68.703125 88.230469 71.777344 88.867188 72.875 C 89.5 73.949219 90.648438 76.027344 91.429688 77.515625 C 93.382812 81.25 97.535156 88.914062 100.339844 93.992188 C 101.636719 96.335938 103.148438 99.144531 103.710938 100.21875 C 104.246094 101.292969 105.785156 104.199219 107.128906 106.664062 L 109.546875 111.15625 L 108.445312 113.011719 C 107.835938 114.039062 106.25 116.796875 104.90625 119.140625 C 102.050781 124.195312 99.023438 129.417969 98.265625 130.617188 C 97.972656 131.078125 96.3125 133.933594 94.605469 136.960938 C 89.84375 145.359375 89.0625 146.703125 87.890625 148.460938 C 87.644531 148.804688 87.109375 149.730469 86.71875 150.539062 C 86.304688 151.316406 85.863281 152.125 85.742188 152.292969 C 85.570312 152.539062 84.398438 150.511719 81.789062 145.457031 C 79.734375 141.527344 77.367188 137.035156 76.539062 135.496094 C 75.707031 133.960938 73.21875 129.246094 71.019531 125.023438 C 68.824219 120.824219 66.699219 116.796875 66.332031 116.113281 C 65.96875 115.429688 64.332031 112.28125 62.695312 109.128906 C 61.085938 105.980469 59.570312 103.050781 59.328125 102.660156 C 59.082031 102.246094 58.300781 100.78125 57.542969 99.367188 C 56.8125 97.949219 55.371094 95.214844 54.320312 93.261719 C 53.296875 91.308594 51.609375 88.132812 50.636719 86.179688 C 49.632812 84.226562 48.070312 81.203125 47.121094 79.46875 C 46.191406 77.710938 44.019531 73.609375 42.335938 70.3125 C 40.625 67.015625 38.5 62.964844 37.574219 61.28125 C 36.671875 59.59375 35.546875 57.519531 35.082031 56.640625 L 34.253906 55.054688 L 28.101562 54.980469 C 24 54.957031 21.972656 55.003906 21.972656 55.175781 C 21.972656 55.492188 24.023438 59.59375 25.269531 61.765625 C 25.78125 62.648438 28.441406 67.628906 31.175781 72.875 C 33.9375 78.101562 36.28125 82.519531 36.402344 82.640625 C 36.5 82.789062 38.71875 86.960938 41.332031 91.917969 C 43.945312 96.898438 46.605469 101.929688 47.289062 103.148438 C 47.949219 104.34375 49.367188 106.980469 50.414062 109.007812 C 51.464844 111.011719 52.832031 113.648438 53.46875 114.867188 C 54.101562 116.0625 55.199219 118.164062 55.910156 119.507812 C 56.617188 120.851562 57.617188 122.65625 58.105469 123.535156 C 58.59375 124.414062 59.910156 126.878906 61.035156 129.027344 C 62.132812 131.175781 63.402344 133.59375 63.84375 134.398438 C 64.28125 135.207031 65.257812 137.058594 66.039062 138.550781 C 66.820312 140.015625 67.917969 142.066406 68.480469 143.066406 C 69.042969 144.066406 70.410156 146.65625 71.535156 148.804688 C 72.632812 150.953125 74 153.539062 74.535156 154.539062 C 77.539062 160.179688 79.222656 163.304688 80.761719 166.1875 C 81.738281 167.96875 83.105469 170.628906 83.863281 172.09375 C 84.59375 173.558594 85.304688 174.828125 85.425781 174.925781 C 85.570312 175 85.960938 174.488281 86.328125 173.804688 C 86.667969 173.09375 87.988281 170.75 89.234375 168.601562 C 90.476562 166.429688 92.554688 162.695312 93.871094 160.277344 C 95.191406 157.859375 97.535156 153.636719 99.121094 150.878906 C 100.707031 148.121094 103.050781 143.894531 104.371094 141.480469 C 105.664062 139.0625 107.324219 136.082031 108.03125 134.886719 C 109.546875 132.273438 111.867188 128.148438 116.164062 120.359375 C 117.894531 117.210938 119.921875 113.574219 120.652344 112.304688 C 121.386719 111.035156 123.609375 107.007812 125.609375 103.394531 C 127.585938 99.753906 129.6875 96.019531 130.273438 95.09375 C 130.835938 94.140625 133.398438 89.527344 135.984375 84.839844 C 138.574219 80.125 140.867188 76.027344 141.113281 75.683594 C 141.332031 75.34375 142.601562 73.097656 143.921875 70.679688 C 146.09375 66.722656 149.65625 60.304688 151.121094 57.738281 C 153.734375 53.125 155.054688 50.78125 157.203125 46.800781 C 158.570312 44.285156 160.375 41.039062 161.230469 39.601562 C 162.058594 38.160156 163.574219 35.523438 164.527344 33.742188 L 166.308594 30.519531 L 188.257812 30.519531 C 200.316406 30.519531 210.203125 30.589844 210.203125 30.664062 C 210.203125 30.859375 204.761719 40.84375 203.246094 43.457031 C 202.660156 44.457031 201.78125 46.042969 201.292969 46.996094 C 200.78125 47.925781 199.707031 49.902344 198.851562 51.390625 C 198.023438 52.855469 196.703125 55.273438 195.921875 56.761719 C 195.140625 58.226562 193.824219 60.597656 192.992188 62.011719 C 192.164062 63.429688 190.699219 65.992188 189.746094 67.75 C 187.523438 71.875 183.007812 80.027344 180.589844 84.351562 C 179.515625 86.230469 176.929688 90.894531 174.804688 94.726562 C 172.703125 98.558594 170.191406 103.050781 169.261719 104.734375 C 168.335938 106.421875 166.429688 109.863281 165.039062 112.425781 C 163.648438 114.964844 162.28125 117.457031 161.988281 117.917969 C 161.304688 119.019531 160.816406 119.871094 156.421875 127.929688 C 154.417969 131.617188 152.148438 135.691406 151.414062 136.960938 C 149.953125 139.527344 150 139.402344 146.605469 145.628906 C 145.265625 148.046875 143.261719 151.660156 142.140625 153.6875 C 139.746094 157.933594 134.058594 168.261719 132.25 171.632812 C 131.589844 172.902344 130.882812 174.171875 130.6875 174.4375 C 130.519531 174.707031 130.371094 175 130.371094 175.097656 C 130.371094 175.21875 132.765625 175.292969 135.71875 175.292969 C 139.695312 175.292969 141.113281 175.21875 141.308594 174.976562 C 141.527344 174.707031 146.410156 165.917969 149.097656 160.914062 C 149.730469 159.765625 150.585938 158.25 151 157.59375 C 151.804688 156.296875 152.613281 154.859375 158.203125 144.652344 C 160.132812 141.164062 161.890625 138.039062 162.109375 137.695312 C 162.351562 137.351562 163.890625 134.617188 165.527344 131.589844 C 168.238281 126.636719 170.726562 122.167969 172.460938 119.140625 C 172.800781 118.53125 174.265625 115.894531 175.707031 113.28125 C 178.734375 107.738281 180.714844 104.222656 182.859375 100.464844 C 183.714844 98.976562 185.914062 95.019531 187.742188 91.675781 C 189.574219 88.304688 191.917969 84.128906 192.921875 82.398438 C 193.921875 80.640625 195.238281 78.34375 195.800781 77.269531 C 197.167969 74.753906 201.90625 66.234375 204.882812 60.914062 C 207.859375 55.617188 213.695312 45.140625 216.992188 39.183594 C 219.140625 35.277344 226.292969 22.484375 227.808594 19.824219 L 228.246094 19.042969 L 160.449219 19.042969 Z M 158.445312 22.632812 "/>
<path style=" stroke:none;fill-rule:nonzero;fill:rgb(0%,0%,0%);fill-opacity:1;" d="M 65.015625 196.289062 C 62.648438 196.800781 60.667969 198.386719 59.59375 200.660156 L 58.960938 202.027344 L 58.960938 215.699219 L 59.59375 217.039062 C 60.5 218.96875 61.351562 219.847656 63.109375 220.726562 C 65.820312 222.070312 69.921875 221.996094 72.4375 220.554688 C 74.242188 219.507812 75.195312 217.820312 75.535156 215.015625 L 75.707031 213.621094 L 70.800781 213.621094 L 70.800781 214.574219 C 70.800781 216.820312 69.75 217.871094 67.503906 217.871094 C 65.796875 217.871094 64.769531 217.261719 64.136719 215.867188 C 63.625 214.796875 63.597656 214.355469 63.597656 208.863281 C 63.597656 203.367188 63.625 202.929688 64.136719 201.855469 C 64.769531 200.488281 65.671875 199.949219 67.382812 199.949219 C 69.605469 199.949219 70.65625 200.925781 70.847656 203.125 L 70.949219 204.222656 L 73.339844 204.296875 L 75.757812 204.371094 L 75.585938 202.832031 C 75.246094 199.828125 73.730469 197.65625 71.363281 196.777344 C 69.875 196.214844 66.527344 195.972656 65.015625 196.289062 Z M 65.015625 196.289062 "/>
<path style=" stroke:none;fill-rule:nonzero;fill:rgb(0%,0%,0%);fill-opacity:1;" d="M 85.058594 196.289062 C 82.542969 196.824219 80.347656 198.460938 79.25 200.660156 C 78.320312 202.464844 78.050781 204.808594 78.171875 210.203125 L 78.273438 214.964844 L 79.078125 216.699219 C 80.027344 218.796875 81.175781 219.96875 83.082031 220.824219 C 85.546875 221.949219 89.695312 221.898438 92.039062 220.703125 C 93.238281 220.09375 94.847656 218.382812 95.457031 217.089844 C 96.3125 215.28125 96.484375 213.574219 96.386719 208.007812 C 96.289062 203.222656 96.242188 202.636719 95.703125 201.292969 C 94.945312 199.339844 93.140625 197.535156 91.210938 196.800781 C 89.601562 196.191406 86.621094 195.945312 85.058594 196.289062 Z M 89.769531 200.585938 C 90.136719 200.855469 90.699219 201.5625 91.015625 202.171875 C 91.554688 203.222656 91.578125 203.417969 91.503906 209.105469 C 91.429688 214.234375 91.382812 215.089844 90.964844 215.867188 C 90.332031 217.164062 89.136719 217.847656 87.425781 217.871094 C 85.667969 217.894531 84.570312 217.261719 83.742188 215.796875 C 83.128906 214.746094 83.128906 214.648438 83.128906 208.984375 C 83.128906 203.613281 83.152344 203.171875 83.667969 202.101562 C 84.421875 200.414062 85.375 199.902344 87.453125 200 C 88.621094 200.074219 89.28125 200.21875 89.769531 200.585938 Z M 89.769531 200.585938 "/>
<path style=" stroke:none;fill-rule:nonzero;fill:rgb(0%,0%,0%);fill-opacity:1;" d="M 0 196.507812 C 0 196.824219 3.246094 208.472656 4.761719 213.621094 C 5.394531 215.699219 6.128906 218.285156 6.445312 219.359375 L 6.980469 221.3125 L 9.546875 221.386719 L 12.085938 221.460938 L 13.5 216.503906 C 14.941406 211.476562 15.160156 210.667969 17.796875 201.539062 C 18.628906 198.707031 19.289062 196.386719 19.289062 196.339844 C 19.289062 196.3125 18.140625 196.289062 16.722656 196.289062 C 14.890625 196.289062 14.109375 196.386719 14.039062 196.582031 C 13.914062 196.921875 11.085938 209.351562 10.203125 213.453125 C 9.914062 214.746094 9.617188 215.746094 9.519531 215.648438 C 9.421875 215.527344 8.617188 212.109375 7.714844 208.007812 C 6.789062 203.90625 5.808594 199.632812 5.515625 198.484375 L 4.980469 196.410156 L 2.492188 196.339844 C 0.929688 196.289062 0 196.363281 0 196.507812 Z M 0 196.507812 "/>
<path style=" stroke:none;fill-rule:nonzero;fill:rgb(0%,0%,0%);fill-opacity:1;" d="M 19.773438 196.433594 C 19.773438 196.632812 25 208.398438 26.023438 210.546875 L 26.855469 212.230469 L 26.855469 221.433594 L 31.738281 221.433594 L 31.738281 212.402344 L 33.960938 207.46875 C 35.179688 204.734375 36.742188 201.367188 37.402344 199.949219 C 39.355469 195.824219 39.476562 196.289062 36.378906 196.289062 L 33.714844 196.289062 L 33.253906 197.3125 C 33.007812 197.902344 32.054688 200.367188 31.105469 202.808594 C 30.175781 205.25 29.34375 207.175781 29.273438 207.078125 C 29.175781 206.984375 28.613281 205.589844 28.003906 203.980469 C 27.394531 202.367188 26.464844 200 25.929688 198.730469 L 24.953125 196.410156 L 22.363281 196.339844 C 20.945312 196.3125 19.773438 196.339844 19.773438 196.433594 Z M 19.773438 196.433594 "/>
<path style=" stroke:none;fill-rule:nonzero;fill:rgb(0%,0%,0%);fill-opacity:1;" d="M 45.09375 196.460938 C 45.042969 196.582031 44.605469 198.070312 44.117188 199.828125 C 40.429688 213.207031 38.332031 220.65625 38.207031 220.996094 C 38.039062 221.386719 38.257812 221.433594 40.578125 221.433594 L 43.117188 221.433594 L 43.824219 218.75 L 44.507812 216.039062 L 47.679688 216.113281 L 50.878906 216.1875 L 52.148438 221.3125 L 54.761719 221.386719 L 57.347656 221.460938 L 56.980469 220.289062 C 56.664062 219.289062 50.804688 198.460938 50.390625 196.824219 C 50.246094 196.3125 50.121094 196.289062 47.730469 196.289062 C 46.339844 196.289062 45.140625 196.363281 45.09375 196.460938 Z M 48.707031 207.886719 C 49.195312 209.765625 49.660156 211.5 49.707031 211.71875 C 49.828125 212.109375 49.632812 212.15625 47.753906 212.15625 C 45.386719 212.15625 45.335938 212.132812 45.996094 210.15625 C 46.191406 209.570312 46.582031 208.179688 46.875 207.03125 C 47.535156 204.445312 47.605469 204.246094 47.703125 204.371094 C 47.753906 204.417969 48.21875 206.007812 48.707031 207.886719 Z M 48.707031 207.886719 "/>
<path style=" stroke:none;fill-rule:nonzero;fill:rgb(0%,0%,0%);fill-opacity:1;" d="M 99.851562 208.863281 L 99.851562 221.433594 L 104.734375 221.433594 L 104.785156 213.820312 L 104.859375 206.199219 L 106.664062 212.644531 C 107.664062 216.1875 108.667969 219.578125 108.886719 220.191406 L 109.277344 221.3125 L 112.621094 221.3125 L 114.183594 215.699219 C 115.039062 212.597656 116.039062 209.15625 116.40625 208.007812 L 117.066406 205.933594 L 117.140625 213.671875 L 117.1875 221.433594 L 122.070312 221.433594 L 122.070312 196.289062 L 115.578125 196.289062 L 113.28125 205.589844 C 111.742188 211.839844 110.914062 214.746094 110.789062 214.453125 C 110.59375 213.988281 108.472656 205.808594 106.882812 199.511719 L 106.078125 196.289062 L 99.851562 196.289062 Z M 99.851562 208.863281 "/>
<path style=" stroke:none;fill-rule:nonzero;fill:rgb(0%,0%,0%);fill-opacity:1;" d="M 125.730469 208.863281 L 125.730469 221.433594 L 130.617188 221.433594 L 130.617188 213.988281 C 130.617188 209.886719 130.710938 206.542969 130.808594 206.542969 C 130.933594 206.542969 131.492188 208.226562 132.054688 210.253906 C 132.640625 212.304688 133.375 214.867188 133.667969 215.941406 C 133.984375 217.015625 134.472656 218.699219 134.765625 219.675781 L 135.277344 221.460938 L 136.914062 221.386719 L 138.523438 221.3125 L 139.0625 219.484375 C 139.355469 218.480469 139.992188 216.285156 140.503906 214.601562 C 140.992188 212.914062 141.722656 210.402344 142.140625 208.984375 C 142.527344 207.570312 142.96875 206.324219 143.066406 206.199219 C 143.1875 206.101562 143.261719 209.472656 143.238281 213.71875 L 143.1875 221.433594 L 147.949219 221.433594 L 147.949219 196.289062 L 141.648438 196.289062 L 141.1875 198.046875 C 140.917969 199.023438 139.84375 203.222656 138.792969 207.347656 C 137.742188 211.5 136.816406 214.722656 136.71875 214.550781 C 136.621094 214.378906 135.59375 210.203125 134.398438 205.25 L 132.226562 196.289062 L 125.730469 196.289062 Z M 125.730469 208.863281 "/>
<path style=" stroke:none;fill-rule:nonzero;fill:rgb(0%,0%,0%);fill-opacity:1;" d="M 159.59375 196.460938 C 159.496094 196.53125 159.421875 202.195312 159.421875 209.03125 L 159.421875 221.433594 L 164.550781 221.433594 L 164.574219 213.792969 L 164.601562 206.175781 L 166.359375 212.402344 C 167.332031 215.820312 168.335938 219.261719 168.554688 220.042969 L 168.96875 221.433594 L 172.289062 221.433594 L 173.535156 217.210938 C 174.21875 214.917969 175.171875 211.523438 175.683594 209.71875 C 176.171875 207.910156 176.683594 206.324219 176.804688 206.175781 C 176.90625 206.054688 177 209.449219 177 213.695312 L 177 221.433594 L 181.640625 221.433594 L 181.640625 196.289062 L 175.414062 196.289062 L 174 201.832031 C 171.703125 210.984375 170.726562 214.601562 170.605469 214.746094 C 170.507812 214.820312 169.433594 210.695312 168.1875 205.589844 L 165.917969 196.289062 L 162.816406 196.289062 C 161.132812 196.289062 159.667969 196.363281 159.59375 196.460938 Z M 159.59375 196.460938 "/>
<path style=" stroke:none;fill-rule:nonzero;fill:rgb(0%,0%,0%);fill-opacity:1;" d="M 185.546875 208.863281 L 185.546875 221.433594 L 199.464844 221.433594 L 199.464844 217.773438 L 194.898438 217.726562 L 190.308594 217.652344 L 190.160156 210.472656 L 197.875 210.328125 L 197.949219 208.421875 L 198.023438 206.542969 L 190.183594 206.542969 L 190.183594 200.195312 L 199.464844 200.195312 L 199.464844 196.289062 L 185.546875 196.289062 Z M 185.546875 208.863281 "/>
<path style=" stroke:none;fill-rule:nonzero;fill:rgb(0%,0%,0%);fill-opacity:1;" d="M 202.636719 208.839844 L 202.636719 221.433594 L 207.226562 221.433594 C 212.449219 221.433594 213.527344 221.214844 215.453125 219.847656 C 216.917969 218.824219 218.359375 216.746094 218.945312 214.867188 C 219.578125 212.816406 219.554688 204.785156 218.894531 202.882812 C 217.945312 200.074219 216.332031 198.195312 213.867188 197.046875 C 212.597656 196.460938 212.28125 196.410156 207.59375 196.339844 L 202.636719 196.238281 Z M 212.183594 200.757812 C 212.644531 201.050781 213.328125 201.90625 213.746094 202.636719 C 214.476562 203.953125 214.476562 204.027344 214.550781 208.375 C 214.625 212.328125 214.601562 212.914062 214.136719 214.207031 C 213.234375 216.796875 211.839844 217.773438 209.105469 217.773438 L 207.519531 217.773438 L 207.519531 200.195312 L 209.449219 200.195312 C 211.035156 200.195312 211.5 200.292969 212.183594 200.757812 Z M 212.183594 200.757812 "/>
<path style=" stroke:none;fill-rule:nonzero;fill:rgb(0%,0%,0%);fill-opacity:1;" d="M 223.144531 208.863281 L 223.144531 221.433594 L 228.027344 221.433594 L 228.027344 196.289062 L 223.144531 196.289062 Z M 223.144531 208.863281 "/>
<path style=" stroke:none;fill-rule:nonzero;fill:rgb(0%,0%,0%);fill-opacity:1;" d="M 237.964844 196.460938 C 237.890625 196.582031 237.328125 198.511719 236.695312 200.804688 C 236.058594 203.074219 235.300781 205.785156 234.984375 206.789062 C 234.375 208.691406 233.519531 211.671875 232.078125 216.796875 C 231.59375 218.480469 231.101562 220.214844 230.980469 220.628906 L 230.738281 221.433594 L 235.984375 221.433594 L 236.425781 219.578125 C 236.671875 218.554688 236.964844 217.332031 237.109375 216.894531 L 237.328125 216.039062 L 240.40625 216.113281 L 243.507812 216.1875 L 243.847656 217.40625 C 244.019531 218.066406 244.335938 219.261719 244.554688 220.019531 L 244.921875 221.433594 L 247.460938 221.433594 C 248.851562 221.433594 250 221.386719 250 221.339844 C 250 221.019531 244.921875 203.101562 244.042969 200.292969 C 243.847656 199.632812 243.480469 198.460938 243.285156 197.679688 L 242.894531 196.289062 L 240.476562 196.289062 C 239.160156 196.289062 238.011719 196.363281 237.964844 196.460938 Z M 241.453125 208.15625 C 241.992188 210.15625 242.429688 211.863281 242.429688 211.964844 C 242.429688 212.085938 241.503906 212.15625 240.382812 212.15625 L 238.328125 212.15625 L 239.332031 208.25 C 239.867188 206.078125 240.355469 204.371094 240.40625 204.445312 C 240.453125 204.492188 240.941406 206.175781 241.453125 208.15625 Z M 241.453125 208.15625 "/>
</g>
</svg>
